<svg width="28" height="28" viewBox="0 0 28 28" fill="none" xmlns="http://www.w3.org/2000/svg">
<path d="M23.3333 25.6667H4.66667C4.35725 25.6667 4.0605 25.5437 3.84171 25.325C3.62292 25.1062 3.5 24.8094 3.5 24.5V3.49999C3.5 3.19058 3.62292 2.89383 3.84171 2.67504C4.0605 2.45624 4.35725 2.33333 4.66667 2.33333H23.3333C23.6428 2.33333 23.9395 2.45624 24.1583 2.67504C24.3771 2.89383 24.5 3.19058 24.5 3.49999V24.5C24.5 24.8094 24.3771 25.1062 24.1583 25.325C23.9395 25.5437 23.6428 25.6667 23.3333 25.6667ZM22.1667 23.3333V4.66666H5.83333V23.3333H22.1667ZM9.33333 10.5H18.6667V12.8333H9.33333V10.5ZM9.33333 15.1667H18.6667V17.5H9.33333V15.1667Z" fill="black"/>
</svg>
