<svg width="28" height="28" viewBox="0 0 28 28" fill="none" xmlns="http://www.w3.org/2000/svg">
<path d="M14 25.6667C13.0457 25.6667 12.1333 25.2817 10.3098 24.514C5.77033 22.6018 3.5 21.6463 3.5 20.0375V8.799M14 25.6667C14.9543 25.6667 15.8667 25.2817 17.6902 24.514C22.2297 22.6018 24.5 21.6463 24.5 20.0375V8.799M14 25.6667V14.035M3.5 8.799C3.5 9.51416 4.43567 9.96566 6.30583 10.8675L9.7125 12.5125C11.8172 13.5275 12.8683 14.035 14 14.035M3.5 8.799C3.5 8.085 4.43567 7.6335 6.30583 6.73166L8.16667 5.83333M24.5 8.799C24.5 9.51416 23.5643 9.96566 21.6942 10.8675L18.2875 12.5125C16.1828 13.5275 15.1317 14.035 14 14.035M24.5 8.799C24.5 8.085 23.5643 7.6335 21.6942 6.73166L19.8333 5.83333M7 15.197L9.33333 16.3602M11.6667 2.33333L14 4.66666M14 4.66666L16.3333 7M14 4.66666L11.6667 7M14 4.66666L16.3333 2.33333" stroke="black" stroke-width="1.5" stroke-linecap="round" stroke-linejoin="round"/>
</svg>
