<svg xmlns="http://www.w3.org/2000/svg" viewBox="0 0 28 28" id="Rupee-Sign--Streamline-Font-Awesome" height="28" width="28">
  <desc>
    Rupee Sign Streamline Icon: https://streamlinehq.com
  </desc>
<!--! Font Awesome Free 6.5.2 by @fontawesome - https://fontawesome.com License - https://fontawesome.com/license/free (Icons: CC BY 4.0, Fonts: SIL OFL 1.1, Code: MIT License) Copyright 2024 Fonticons, Inc.-->
  <path d="M0.2800375 2.2396875c0 -1.08395 0.8757375 -1.9596875 1.9596875 -1.9596875h4.89921875c4.86859375 0 8.8185875 3.94999375 8.8185875 8.8185875 0 3.600925 -2.15565625 6.69355625 -5.2482875 8.0653375l3.14775 7.86324375c0.40418125 1.0043375 -0.0857375 2.14340625 -1.09008125 2.54759375s-2.14340625 -0.0857375 -2.5475875 -1.09008125l-3.42945625 -8.5675H4.1994125v7.83874375c0 1.08395 -0.8757375 1.9596875 -1.9596875 1.9596875s-1.9596875 -0.8757375 -1.9596875 -1.9596875V2.2396875Zm3.919375 11.75811875h2.93953125c2.7068125 0 4.8992125 -2.1924 4.8992125 -4.89921875S9.84575625 4.199375 7.13894375 4.199375H4.1994125v9.79843125Zm15.7081125 1.0043375c-0.05511875 0.36744375 0 0.53279375 0.02449375 0.60015625 0.0245 0.0673625 0.0857375 0.159225 0.2572125 0.300075 0.440925 0.34906875 1.1451875 0.6124 2.321 1.0288375l0.0796125 0.03061875c0.97984375 0.34294375 2.37 0.83286875 3.41108125 1.72085 0.58178125 0.49604375 1.0962 1.13906875 1.41465 1.97805625 0.312325 0.83899375 0.3735625 1.74535 0.2327125 2.69456875 -0.2572125 1.72085 -1.255425 3.01914375 -2.682325 3.72953125 -1.35340625 0.67364375 -2.94565 0.7655 -4.48278125 0.48991875h-0.01225c-0.56953125 -0.11023125 -1.255425 -0.34906875 -1.7943375 -0.55115625 -0.3674375 -0.14085625 -0.771625 -0.30008125 -1.08395 -0.4225625 -0.1531 -0.0612375 -0.28170625 -0.11023125 -0.3858125 -0.1531 -1.0104625 -0.3919375 -1.5065125 -1.53100625 -1.114575 -2.53534375s1.52488125 -1.50650625 2.53534375 -1.11456875c0.159225 0.0612375 0.31845 0.12248125 0.4838 0.18984375 0.29395625 0.11635625 0.60015625 0.2388375 0.9431 0.3674375 0.5389125 0.20209375 0.936975 0.3307 1.14519375 0.36744375 0.96146875 0.171475 1.6351125 0.04899375 2.0148 -0.14085 0.3062 -0.15310625 0.489925 -0.36744375 0.5572875 -0.796125 0.0612375 -0.42255625 0.01224375 -0.643025 -0.03061875 -0.75325625 -0.03675 -0.10410625 -0.1102375 -0.2204625 -0.27558125 -0.36131875 -0.4225625 -0.3551875 -1.114575 -0.63689375 -2.25976875 -1.04108125l-0.18371875 -0.0673625c-0.949225 -0.3307 -2.2658875 -0.796125 -3.2641 -1.586125 -0.58178125 -0.4593 -1.1207 -1.077825 -1.45139375 -1.89844375 -0.336825 -0.82061875 -0.4041875 -1.714725 -0.26945625 -2.645575 0.5144125 -3.49681875 4.10309375 -4.7767375 7.158975 -4.21945 0.4225625 0.0796125 1.6718625 0.35519375 2.16790625 0.5144125 1.03495625 0.31845 1.61061875 1.420775 1.29216875 2.4557375s-1.420775 1.6106125 -2.45573125 1.29216875c-0.28783125 -0.0857375 -1.36565625 -0.336825 -1.70860625 -0.3980625 -0.89410625 -0.16535 -1.57999375 -0.0245 -1.99643125 0.19596875 -0.3858125 0.20209375 -0.5450375 0.465425 -0.58178125 0.73488125Z" fill="#000000" stroke-width="0.0625"></path>
</svg>