<svg width="28" height="28" viewBox="0 0 28 28" fill="none" xmlns="http://www.w3.org/2000/svg">
<path d="M14 3.5C16.5783 3.5 18.6667 5.58833 18.6667 8.16667C18.6667 10.745 16.5783 12.8333 14 12.8333C11.4217 12.8333 9.33332 10.745 9.33332 8.16667C9.33332 5.58833 11.4217 3.5 14 3.5ZM18.6667 15.7967C18.6667 17.0333 18.34 19.915 16.1117 23.135L15.1667 17.5L16.2633 15.3067C15.54 15.225 14.7817 15.1667 14 15.1667C13.2183 15.1667 12.46 15.225 11.7367 15.3067L12.8333 17.5L11.8883 23.135C9.65999 19.915 9.33332 17.0333 9.33332 15.7967C6.54499 16.6133 4.66666 18.0833 4.66666 19.8333V24.5H23.3333V19.8333C23.3333 18.0833 21.4667 16.6133 18.6667 15.7967Z" fill="black"/>
</svg>
