<svg width="32" height="32" viewBox="0 0 32 32" fill="none" xmlns="http://www.w3.org/2000/svg">
<path d="M12 13.3333V8C12 6.93913 12.4214 5.92172 13.1716 5.17157C13.9217 4.42143 14.9391 4 16 4C17.0609 4 18.0783 4.42143 18.8284 5.17157C19.5786 5.92172 20 6.93913 20 8V13.3333M24 10.6667L25.2227 26.564C25.2368 26.7472 25.2129 26.9313 25.1526 27.1049C25.0922 27.2784 24.9966 27.4376 24.8717 27.5724C24.7469 27.7073 24.5956 27.8149 24.4272 27.8884C24.2588 27.962 24.0771 28 23.8933 28H8.10667C7.92292 28 7.74117 27.962 7.5728 27.8884C7.40443 27.8149 7.25308 27.7073 7.12826 27.5724C7.00344 27.4376 6.90783 27.2784 6.84744 27.1049C6.78706 26.9313 6.76319 26.7472 6.77734 26.564L8 10.6667H24Z" stroke="#591B0D" stroke-width="2" stroke-linecap="round" stroke-linejoin="round"/>
</svg>
